<svg xmlns="http://www.w3.org/2000/svg" viewBox="0 0 1742.56 272.73"><defs><style>.cls-1{fill:#fff;}.cls-2{fill:#8e51a0;}.cls-3{fill:#81c342;}.cls-4{fill:#e77925;}</style></defs><title>darkfruitlogo</title><g id="Layer_2" data-name="Layer 2"><g id="Layer_5" data-name="Layer 5"><path class="cls-1" d="M504.88,60.48c0,2.53-1.38,3.78-4.15,3.78q-7.19,0-56.9-2.83-1.12,47.82-1.13,66.72,0,22.31,1.79,67.1t1.8,67.1q0,3.6-1.7,4.54c-.38.25-2.15.56-5.29.94Q428,269.34,406,269.34q-24.39,0-34.21-1.51-5.29-.94-5.29-5.86,0-22.29,1.89-66.91t1.89-66.91q0-14.75-1.52-65.78-37.8,3.8-60.29,3.79c-2,0-3-.63-3-1.9q0-2.45,2.65-14.55,3-13.23,3.4-16.07.57-8.88,1.33-17.76,1.32-14.17,4.53-14.18c.25,0,1.14.07,2.65.19q30.62,4,90.54,4,17,0,62.75-3.59L498.08.38c2.52,0,4,.16,4.35.47s.63,1.55.75,3.69q0,5.1-.38,14.17-.37,10-.37,14.18a111.67,111.67,0,0,0,1.23,13.89A115,115,0,0,1,504.88,60.48Z"/><path class="cls-1" d="M694.41,264.52c0,1.59-1.11,2.7-3.31,3.31q-4,1.07-24.61,1.06-18.91,0-24.34-1.06c-3-.61-4.9-2.6-5.69-5.95q-4.5-19-7-20.38-2.12-.92-35.45-.92-22.5,0-24,1.19-2.25,2.11-5,14.15-2.52,11-6.09,11.91-4.5,1.07-30.16,1.06-20.25,0-20.25-3.84,0-3.44,29.91-84.54,32.42-87.72,35.19-96.46,1.59-5,3.7-5,3.59,0,11.05.66t11.18.66q3.57,0,10.52-.46t10.39-.47c1.67,0,3.22,1.46,4.63,4.37q6.48,13.89,37.84,95.26Q694.41,261,694.41,264.52ZM600.6,144q-2.77,5.82-9.39,25.27-7.15,20.64-7.15,24.21,0,2.39,7.94,2.65,4.1.27,13.5.27,8.73,0,9.66-2.12a5.31,5.31,0,0,0,.26-1.85q0-4.38-6.09-24.09Q603.38,149.28,600.6,144Z"/><path class="cls-1" d="M891.68,175.22q0,41.28-26.33,69.19-26.85,28.32-68,28.32-40.89,0-67.88-28.58Q703,216.24,703,175.22T729.47,106q27-28.71,67.88-28.71,40.6,0,67.74,28.71Q891.69,134.32,891.68,175.22ZM841.54,175q0-19.84-12-33.74-12.57-14.55-32.15-14.55-18.66,0-31.63,15.08a49.73,49.73,0,0,0-12.57,33.48q0,20.24,11.78,33.73,12.44,14.16,32.42,14.16,18.64,0,31.75-15A49,49,0,0,0,841.54,175Z"/><path class="cls-2" d="M1159.18,64.26c0,1.39-1.26,2.08-3.78,2.08q-14.18,0-43-2.45t-43.19-2.46q-18.14,0-21.17,1.32-7,3.23-7,18.15,0,18,9.07,20.41a51.45,51.45,0,0,0,11.53,1q13,0,39-1.42t39-1.42q6.24,0,6.24,33.27,0,28.92-2.08,33.64a5,5,0,0,1-5.1,3.4q2.46,0-11.91-1.32-20.22-1.89-61.24-1.89-13.23,0-14.93.19-9.64,1.51-9.64,8.13,0,26.83,2.27,61.8,1.89,31.58,1.89,28.17,0,4.9-11.91,5.67,3.21-.19-16.82-.19-35.36,0-45.55-2.46-5.49-1.32-5.49-5.86,0-21,1.42-63t1.42-63q0-24.95-2.27-62.75-3.4-58.41-3.59-62.75l-.19-2.27Q962,3.41,967.9,3.4q14,0,42.25.57t42.43.57q15.12,0,45.46-2.27T1143.49,0q9.45,0,10.59,7.75,0,8.13.76,24.38.38,4.17,2.45,16.07A96.59,96.59,0,0,1,1159.18,64.26Z"/><path class="cls-2" d="M1334,266.51q0,.93-2.64,1.32-5,.8-25.27.8-17.34,0-23.56-.8a13,13,0,0,1-3.3-.66,5.83,5.83,0,0,1-1.86-2.65q-2-5.16-5.82-15.34-5.16-13.23-16.14-39-2.39-5.14-11-5.68,4,.25-13.63.26-2,0-2,6.75,0,9,1.65,26.86t1.65,26.86c0,1.5-.39,2.38-1.19,2.64l-3.7.27q-7.82.52-24.35.53-18.91,0-22.75-.8c-2.56-.53-3.84-1.89-3.84-4.1q0-14.55,1.39-43.93t1.39-44.06q0-56-2.51-87.32l-.14-1.85c-.09-1.5,1.3-2.52,4.17-3s16.34-1.06,40.42-1.59q24.48-.52,39-.53,30.17,0,49.22,13.63,21.57,15.34,21.57,44.32,0,19.32-5.56,30.83t-20.51,22.36q-3,2.12-3,4,0-.14,16.14,33.21T1334,266.51Zm-55.57-118.68q0-16.14-10.58-22.36-8.2-4.77-25.67-4.77-12.57,0-13.36,3.84-.79,4.5-.8,25.93,0,3,.14,9c.08,4,.13,6.93.13,8.86,0,.45,1.41.89,4.23,1.33a116.59,116.59,0,0,0,16.94,1.19Q1278.41,170.85,1278.41,147.83Z"/><path class="cls-2" d="M1506.91,202.87q0,33.74-8.07,46-14.82,22.5-74,22.49-26.73,0-41.15-4.1-23-6.62-29.9-25.27-3.43-9.12-3.44-32.55,0-5.41.4-16.14t.39-16q0-15.35-1.45-46t-1.46-45.91c0-2.12.93-3.18,2.78-3.18q8.07,0,24.41.66t24.41.67q3.32,0,3.31,2.91,0,17.46-1.12,52.32t-1.13,52.33q0,20.78,4.37,28,5.82,9.93,24.34,9.93,27.12,0,27.13-26.33,0-19.19-.93-57.56t-.93-57.55c0-2.74,1.11-4.1,3.31-4.1q7.82,0,23.55-.67t23.55-.66q3.84,0,3.84,3.18,0,15.21-1.26,45.91t-1.25,46q0,4.24.13,12.77T1506.91,202.87Z"/><path class="cls-2" d="M1586.7,170.06q0,15.6.79,47t.79,47c0,1.76-.39,2.86-1.19,3.3a26.17,26.17,0,0,1-3.44.53,196.46,196.46,0,0,1-23,1.06q-19.32,0-24.61-1.06c-2.56-.53-3.84-1.89-3.84-4.1q0,2.11,1.19-23.29,2.39-53.58,2.39-70.38,0-14.16-.93-42.48t-.93-42.47c0-1.94,1-2.91,3-2.91q4.1,0,12.37.4t12.37.4q4.1,0,12.1-.4t12.11-.4q3.84,0,3.84,2.91,0,14.16-1.52,42.47T1586.7,170.06Z"/><path class="cls-2" d="M1742.56,122.69c0,1.76-1,2.64-2.92,2.64q-5,0-39.82-2-.79,33.48-.79,46.71,0,15.6,1.25,47t1.26,47c0,1.67-.4,2.73-1.19,3.17a15.54,15.54,0,0,1-3.71.66,189.19,189.19,0,0,1-23.28,1.06q-17.07,0-23.95-1.06c-2.47-.44-3.71-1.8-3.71-4.1q0-15.62,1.33-46.84t1.32-46.83q0-10.34-1.06-46-26.46,2.65-42.2,2.65c-1.42,0-2.12-.44-2.12-1.33a76.24,76.24,0,0,1,1.85-10.18q2.12-9.27,2.38-11.25.4-6.21.93-12.44.91-9.92,3.17-9.92c.18,0,.8,0,1.86.13q21.43,2.79,63.37,2.78,11.91,0,43.93-2.51l17.33-1.33a7.2,7.2,0,0,1,3,.34c.26.22.44,1.08.53,2.58,0,2.38-.09,5.68-.27,9.92-.18,4.67-.26,8-.26,9.92a78.38,78.38,0,0,0,.86,9.73A80.1,80.1,0,0,1,1742.56,122.69Z"/><path class="cls-2" d="M162.86,126.71C159,104.73,148.81,87.18,128.1,77a51.89,51.89,0,0,0-11.95-3.89A56.94,56.94,0,0,1,133.72,69c22-1.84,41.07,5.5,57.52,19.68,21.86,18.84,33.62,43.23,37.83,71.47,4.14,27.73-1.75,53.11-18.59,75.66C174,284.57,99.74,282.08,66.63,230.93,48,202.21,46,171.51,56.42,139.48c.27-1,1.75-5.2,2.16-6.13,6.28-16.12,14.2-31.17,28.8-41.4,19.13-13.4,41-11.1,57.32,5.65,8,8.25,13,18.16,16.1,29.15a6.84,6.84,0,0,1,1.9,5.43C162,138.52,162.28,127.65,162.86,126.71Z"/><path class="cls-3" d="M61,70.56c8.9-2.91,16.79-8,25.42-11.54,11.16-4.56,22.28-4.34,33.57-1,0,1.53-1.22,1.11-1.94,1.29-9.48,2.42-16.69,8.12-22.77,15.53C91.49,79.48,87.89,84.23,83,87.78,75,93.51,66,94.21,56.85,92.6c-14.1-2.48-28.14-5.19-42.45-6.1A62.74,62.74,0,0,0,0,86.81c.23-.43.32-.86.51-.92,16.7-5.22,29-16.54,40.65-28.89,5.89-6.23,12.32-12.06,20.32-15.67,17-7.65,33.9-6.43,50.75.52A62.91,62.91,0,0,1,128.61,52c-4.56-.18-8.91-1.42-13.35-2-11.51-1.59-22.08.94-32,6.54C75.33,61,67.6,65.77,59.78,70.4c-1.37,1.26-3.51.94-4.76,2.18C56.74,71.37,58.94,71.17,61,70.56Z"/><path class="cls-4" d="M132.88,38.13c.08-11.72,1.45-22.78,5.48-33.41,1.43-3.79,2.75-4.2,6-1.67a41.19,41.19,0,0,1,4.59,4.37c5.38,5.83,5.33,6.44,1.51,13.21-6.19,11-8.07,22.9-7.36,35.33,0,.38.13.74.16,1.11.57,6.21.57,6.14-5.52,6.06-1.8,0-2.47-.42-2.81-2.38A153,153,0,0,1,132.88,38.13Z"/></g></g></svg>