<svg xmlns="http://www.w3.org/2000/svg" viewBox="0 0 1783.68 274.33" style="position:absolute;">
	<symbol id="tao_fruit_logo2">
		<defs>
            <style>.cls-1{fill:#874098;}.cls-2{fill:#81c342;}.cls-3{fill:#e77925;}.cls-4{fill:#fff;}.cls-5{fill:#d5e8bd;}.cls-6{fill:#fff;}.cls-7{fill:#7f3f98;}</style>
        </defs>
		<g id="Layer_2" data-name="Layer 2"><g id="Layer_1-2" data-name="Layer 1"><path class="cls-1" style="fill:#874098;" d="M162.86,125.26c-3.86-22-14.05-39.53-34.76-49.72a51.42,51.42,0,0,0-11.95-3.89,56.94,56.94,0,0,1,17.57-4.12c22-1.84,41.07,5.5,57.52,19.68,21.86,18.84,33.62,43.23,37.83,71.47,4.14,27.73-1.75,53.11-18.59,75.66C174,283.12,99.74,280.63,66.63,229.48,48,200.76,46,170.06,56.42,138c.27-1,1.75-5.2,2.16-6.13,6.28-16.12,14.2-31.17,28.8-41.4,19.13-13.4,41-11.1,57.32,5.65,8,8.25,13,18.16,16.1,29.15a6.84,6.84,0,0,1,1.9,5.43C162,137.07,162.28,126.2,162.86,125.26Z"/><path class="cls-2" style="fill:#81c342;" d="M61,69.11c8.9-2.91,16.79-8,25.42-11.54,11.16-4.56,22.28-4.35,33.57-1,0,1.53-1.22,1.11-1.94,1.29C108.56,60.3,101.35,66,95.27,73.41,91.49,78,87.89,82.78,83,86.33c-8,5.73-16.94,6.43-26.1,4.82C42.75,88.67,28.71,86,14.4,85.05A62.74,62.74,0,0,0,0,85.36c.23-.43.32-.86.51-.92,16.7-5.22,29-16.54,40.65-28.89,5.89-6.23,12.32-12.06,20.32-15.67,17-7.65,33.9-6.43,50.75.52a62.91,62.91,0,0,1,16.38,10.19c-4.56-.18-8.91-1.42-13.35-2-11.51-1.59-22.08.94-32,6.53C75.33,59.55,67.6,64.32,59.78,69c-1.37,1.26-3.51.94-4.76,2.18C56.74,69.92,58.94,69.72,61,69.11Z"/><path class="cls-3" style="fill:#e77925;" d="M132.88,36.68C133,25,134.33,13.9,138.36,3.27c1.43-3.79,2.75-4.2,6-1.67A41.19,41.19,0,0,1,148.92,6c5.38,5.83,5.33,6.44,1.51,13.21-6.19,11-8.07,22.9-7.36,35.33,0,.38.13.74.16,1.11.57,6.21.57,6.14-5.52,6.06-1.8,0-2.47-.42-2.81-2.38A153,153,0,0,1,132.88,36.68Z"/><path class="cls-4" style="fill:#fff;" d="M161,123.16c.76,0,1.47.23,1.58.54a18.91,18.91,0,0,1,.58,3.12s.11,1.27.18,3c.15,3.17.07,7,.07,7,0,1.1-.21,1.12-.43,0,0,0-.33-1.64-.67-3.51-.29-1.64-.57-3.25-.82-4.84l-1.17-5.29Z"/><path class="cls-5" style="fill:#d5e8bd;" d="M61,69.11c-2,1.32-4.18,1.88-7.31,2.17C56.11,70,57.76,69,59.78,69Z"/><path class="cls-1" d="M60.15,151.52V153h0a2.44,2.44,0,0,1-1.49-2.38,100,100,0,0,1,.74-14.86c0,4,0,7.92,0,11.87,0,1.31-.5,2.78.74,3.87Z"/><path class="cls-6" style="fill:#fff;" d="M512.69,62.09q0,3.78-4.16,3.78-7.18,0-56.89-2.84-1.14,47.82-1.14,66.72,0,22.31,1.8,67.1t1.8,67.1q0,3.6-1.71,4.54c-.37.25-2.14.57-5.29.95q-11.34,1.5-33.26,1.51-24.39,0-34.22-1.51c-3.53-.63-5.29-2.59-5.29-5.86q0-22.3,1.89-66.92t1.89-66.91q0-14.73-1.51-65.77-37.8,3.78-60.3,3.78c-2,0-3-.63-3-1.89q0-2.46,2.65-14.56,3-13.23,3.4-16.06.57-8.88,1.32-17.77Q322,3.31,325.19,3.3c.25,0,1.13.07,2.64.19q30.63,4,90.54,4,17,0,62.75-3.59Q505.69,2,505.89,2c2.51,0,4,.16,4.34.47s.63,1.55.76,3.69q0,5.1-.38,14.18-.37,10-.38,14.17a113.67,113.67,0,0,0,1.23,13.89A113.49,113.49,0,0,1,512.69,62.09Z"/><path class="cls-6" style="fill:#fff;" d="M702.21,266.13q0,2.39-3.3,3.31-4,1.05-24.61,1.05-18.93,0-24.35-1.05c-3-.62-4.89-2.61-5.69-6q-4.5-19.05-7-20.37-2.12-.93-35.46-.93-22.5,0-23.95,1.19-2.25,2.12-5,14.16-2.52,11-6.09,11.91-4.5,1.05-30.17,1.05-20.23,0-20.24-3.83,0-3.45,29.9-84.55,32.41-87.72,35.2-96.45c1.05-3.35,2.29-5,3.7-5q3.57,0,11,.66t11.18.66q3.57,0,10.52-.46T628.25,81q2.52,0,4.63,4.36,6.48,13.89,37.84,95.27Q702.22,262.56,702.21,266.13Zm-93.8-120.54q-2.79,5.83-9.4,25.28-7.14,20.63-7.14,24.21c0,1.58,2.64,2.47,7.94,2.64q4.1.27,13.49.27,8.73,0,9.66-2.12a5.06,5.06,0,0,0,.27-1.85q0-4.36-6.09-24.08Q611.18,150.89,608.41,145.59Z"/><path class="cls-6" style="fill:#fff;" d="M899.49,176.82q0,41.28-26.33,69.2-26.86,28.3-68,28.31-40.87,0-67.87-28.58-26.47-27.92-26.47-68.93t26.47-69.2q27-28.71,67.87-28.71,40.62,0,67.74,28.71Q899.49,135.94,899.49,176.82Zm-50.15-.27q0-19.85-12-33.73-12.57-14.56-32.15-14.56-18.66,0-31.62,15.08A49.75,49.75,0,0,0,761,176.82q0,20.24,11.78,33.74,12.43,14.16,32.41,14.15,18.66,0,31.76-15A49,49,0,0,0,849.34,176.55Z"/><path class="cls-7" style="fill:#7f3f98;" d="M1200.31,65.87c0,1.39-1.26,2.08-3.78,2.08q-14.17,0-43-2.46T1110.34,63q-18.15,0-21.17,1.33-7,3.21-7,18.14,0,18,9.08,20.41a50.85,50.85,0,0,0,11.53,1q13,0,39-1.42t39-1.42q6.24,0,6.24,33.27,0,28.92-2.08,33.65a5,5,0,0,1-5.11,3.4q2.46,0-11.9-1.33-20.23-1.87-61.24-1.89c-8.83,0-13.8.07-14.94.19q-9.63,1.51-9.64,8.13,0,26.84,2.27,61.81,1.89,31.56,1.89,28.16,0,4.92-11.91,5.67,3.22-.19-16.82-.19-35.34,0-45.55-2.45c-3.66-.88-5.48-2.84-5.48-5.86q0-21,1.42-63t1.41-63q0-24.94-2.26-62.75-3.4-58.41-3.6-62.75l-.18-2.27Q1003.17,5,1009,5q14,0,42.24.56t42.43.57q15.12,0,45.46-2.27t45.46-2.27q9.45,0,10.58,7.75,0,8.13.76,24.39.38,4.15,2.46,16.06A96.68,96.68,0,0,1,1200.31,65.87Z"/><path class="cls-7" style="fill:#7f3f98;" d="M1375.11,268.11c0,.62-.89,1.06-2.65,1.33q-5,.78-25.27.79-17.34,0-23.55-.79a13.59,13.59,0,0,1-3.31-.67,5.77,5.77,0,0,1-1.85-2.64q-2-5.16-5.82-15.35-5.16-13.23-16.14-39-2.38-5.16-11-5.69,4,.27-13.62.26-2,0-2,6.75,0,9,1.65,26.86t1.66,26.86c0,1.5-.4,2.38-1.19,2.65l-3.71.26q-7.8.53-24.34.53-18.93,0-22.76-.79t-3.84-4.11q0-14.55,1.39-43.92t1.39-44.06q0-56-2.51-87.33l-.13-1.85q-.13-2.25,4.16-3t40.43-1.59q24.47-.53,39-.53,30.16,0,49.22,13.63Q1371.93,112,1371.93,141q0,19.32-5.56,30.83t-20.5,22.36c-2,1.41-3,2.74-3,4q0-.13,16.15,33.21T1375.11,268.11Zm-55.57-118.68q0-16.14-10.59-22.36-8.21-4.77-25.67-4.76-12.57,0-13.36,3.83-.8,4.5-.79,25.94c0,2,0,5,.13,9s.13,6.93.13,8.87c0,.44,1.41.88,4.24,1.32a115,115,0,0,0,16.93,1.19Q1319.54,172.45,1319.54,149.43Z"/><path class="cls-7" style="fill:#7f3f98;" d="M1548,204.47q0,33.74-8.08,46.05Q1525.14,273,1466,273q-26.71,0-41.14-4.1-23-6.62-29.91-25.28-3.43-9.12-3.44-32.54,0-5.43.4-16.14t.4-16q0-15.36-1.46-46.05T1389.4,87c0-2.12.92-3.18,2.77-3.18q8.07,0,24.42.67t24.41.66c2.2,0,3.31,1,3.31,2.91q0,17.46-1.13,52.33t-1.12,52.33q0,20.76,4.36,28,5.82,9.93,24.35,9.93,27.12,0,27.12-26.33,0-19.18-.93-57.56T1496,89.23q0-4.1,3.31-4.1,7.8,0,23.55-.66t23.55-.67c2.56,0,3.83,1.06,3.83,3.18q0,15.21-1.25,45.91t-1.26,46.05q0,4.23.13,12.76T1548,204.47Z"/><path class="cls-7" style="fill:#7f3f98;" d="M1627.82,171.66q0,15.61.79,47t.8,47c0,1.76-.4,2.87-1.19,3.31a31.46,31.46,0,0,1-3.44.53,199.25,199.25,0,0,1-23,1.05q-19.32,0-24.61-1.05c-2.56-.53-3.83-1.9-3.83-4.11q0,2.13,1.19-23.28,2.38-53.6,2.38-70.39,0-14.16-.93-42.47T1575,86.72c0-1.94,1-2.92,3-2.92q4.1,0,12.37.4t12.37.4q4.11,0,12.11-.4t12.11-.4c2.55,0,3.83,1,3.83,2.92q0,14.16-1.52,42.47T1627.82,171.66Z"/><path class="cls-7" style="fill:#7f3f98;" d="M1783.68,124.29c0,1.77-1,2.65-2.91,2.65q-5,0-39.83-2-.8,33.48-.79,46.71,0,15.61,1.26,47t1.25,47c0,1.68-.39,2.73-1.19,3.17a15.69,15.69,0,0,1-3.7.67,191.84,191.84,0,0,1-23.29,1.05q-17.07,0-24-1.05c-2.47-.45-3.7-1.81-3.7-4.11q0-15.6,1.32-46.83t1.33-46.84q0-10.32-1.06-46-26.48,2.64-42.21,2.64c-1.41,0-2.12-.44-2.12-1.32a77.1,77.1,0,0,1,1.86-10.19q2.11-9.25,2.38-11.25.39-6.21.92-12.43.93-9.93,3.18-9.93c.17,0,.79,0,1.85.14q21.43,2.77,63.38,2.77,11.91,0,43.92-2.51l17.34-1.32c1.76,0,2.78.11,3,.33s.44,1.08.53,2.58q0,3.57-.27,9.92-.26,7-.26,9.92a78.38,78.38,0,0,0,.86,9.73A80.1,80.1,0,0,1,1783.68,124.29Z"/><text/></g></g>
	</symbol>
</svg>