<svg xmlns="http://www.w3.org/2000/svg" viewBox="0 0 1785.66 405.32"><defs><style>.cls-1{fill:#874098;}.cls-2{fill:#81c342;}.cls-3{fill:#e77925;}.cls-4{fill:#fff;}.cls-5{fill:#d5e8bd;}.cls-6,.cls-7{font-size:387.1px;font-family:BerlinSansFBDemi-Bold, Berlin Sans FB Demi;font-weight:700;}.cls-6{fill:#231f20;}.cls-7{fill:#7f3f98;}</style></defs><title>taofruit_1</title><g id="Layer_2" data-name="Layer 2"><g id="Layer_1-2" data-name="Layer 1"><path class="cls-1" d="M162.86,181.94c-3.86-22-14.05-39.53-34.76-49.72a51.9,51.9,0,0,0-11.95-3.88,56.68,56.68,0,0,1,17.57-4.13c22-1.83,41.07,5.5,57.52,19.68,21.86,18.84,33.62,43.24,37.83,71.48,4.14,27.73-1.75,53.1-18.59,75.65C174,339.81,99.74,337.31,66.63,286.16,48,257.44,46,226.74,56.42,194.72c.27-1,1.75-5.21,2.16-6.14,6.28-16.11,14.2-31.17,28.8-41.4,19.13-13.4,41-11.1,57.32,5.65,8,8.25,13,18.17,16.1,29.15a6.85,6.85,0,0,1,1.9,5.44C162,193.75,162.28,182.88,162.86,181.94Z"/><path class="cls-2" d="M61,125.79c8.9-2.91,16.79-8,25.42-11.54,11.16-4.55,22.28-4.34,33.57-1,0,1.53-1.22,1.11-1.94,1.29-9.48,2.42-16.69,8.12-22.77,15.53C91.49,134.71,87.89,139.47,83,143c-8,5.73-16.94,6.43-26.1,4.81-14.1-2.48-28.14-5.19-42.45-6.1A63.31,63.31,0,0,0,0,142c.23-.43.32-.85.51-.92,16.7-5.21,29-16.54,40.65-28.88,5.89-6.23,12.32-12.06,20.32-15.67,17-7.65,33.9-6.44,50.75.51a62.91,62.91,0,0,1,16.38,10.19c-4.56-.18-8.91-1.41-13.35-2-11.51-1.59-22.08,1-32,6.54-7.92,4.45-15.65,9.22-23.47,13.85-1.37,1.26-3.51.94-4.76,2.19C56.74,126.61,58.94,126.4,61,125.79Z"/><path class="cls-3" d="M132.88,93.37c.08-11.72,1.45-22.79,5.48-33.41,1.43-3.79,2.75-4.21,6-1.68a40.39,40.39,0,0,1,4.59,4.38c5.38,5.82,5.33,6.43,1.51,13.21-6.19,11-8.07,22.89-7.36,35.33,0,.37.13.74.16,1.11.57,6.2.57,6.13-5.52,6-1.8,0-2.47-.42-2.81-2.38A153,153,0,0,1,132.88,93.37Z"/><path class="cls-4" d="M161,179.84c.76,0,1.47.23,1.58.54a19.08,19.08,0,0,1,.58,3.13s.11,1.26.18,3c.15,3.17.07,7,.07,7,0,1.1-.21,1.11-.43,0,0,0-.33-1.64-.67-3.5-.29-1.64-.57-3.26-.82-4.85l-1.17-5.28Z"/><path class="cls-5" d="M61,125.79A14.8,14.8,0,0,1,53.68,128c2.43-1.28,4.08-2.3,6.1-2.33Z"/><path class="cls-1" d="M60.15,208.2v1.5h0a2.43,2.43,0,0,1-1.49-2.37,99.91,99.91,0,0,1,.74-14.86c0,3.95,0,7.91,0,11.86,0,1.31-.5,2.78.74,3.88Z"/><text class="cls-6" transform="translate(311.2 326.12)">T</text><text class="cls-6" transform="translate(515.53 326.12) scale(0.7)">AO</text><text class="cls-7" transform="translate(987.67 326.12)">F</text><text class="cls-7" transform="translate(1205.22 326.12) scale(0.7)">RUIT</text><text/></g></g></svg>