<svg id="Layer_1" data-name="Layer 1" xmlns="http://www.w3.org/2000/svg" viewBox="0 0 418.1 499.14"><defs><style>.cls-1{fill:#874098;}.cls-2{fill:#81c342;}.cls-3{fill:#e77925;}.cls-4{fill:#fff;}.cls-5{fill:#d5e8bd;}</style></defs><title>Artboard 1</title><path class="cls-1" d="M250.1,234.12c-5.14-29.31-18.73-52.72-46.35-66.3a68.91,68.91,0,0,0-15.93-5.18,75.73,75.73,0,0,1,23.43-5.5c29.38-2.44,54.77,7.34,76.71,26.25,29.14,25.12,44.83,57.65,50.45,95.31,5.51,37-2.33,70.82-24.8,100.88C265,444.63,165.93,441.31,121.78,373.1,97,334.8,94.29,293.86,108.16,251.15c.35-1.31,2.33-6.94,2.87-8.18,8.37-21.49,18.94-41.57,38.41-55.21,25.5-17.87,54.66-14.8,76.43,7.54,10.72,11,17.37,24.22,21.47,38.87a9.13,9.13,0,0,1,2.53,7.25C249,249.87,249.32,235.37,250.1,234.12Z"/><path class="cls-2" d="M114.25,159.24c11.87-3.88,22.4-10.68,33.91-15.39,14.87-6.08,29.7-5.79,44.77-1.3,0,2-1.64,1.48-2.59,1.72C177.7,147.5,168.07,155.1,160,165c-5,6.15-9.85,12.5-16.43,17.23-10.64,7.64-22.59,8.57-34.81,6.42-18.79-3.31-37.52-6.92-56.6-8.14-6.31-.4-12.63-.65-19.2.41.31-.57.42-1.14.69-1.22,22.26-7,38.62-22.05,54.2-38.52,7.86-8.31,16.43-16.08,27.11-20.89,22.65-10.2,45.2-8.58,67.67.69a83.64,83.64,0,0,1,21.85,13.59c-6.09-.25-11.88-1.89-17.8-2.71-15.36-2.12-29.45,1.26-42.69,8.72-10.55,5.94-20.87,12.3-31.29,18.47-1.83,1.68-4.68,1.26-6.36,2.91C108.59,160.33,111.52,160.06,114.25,159.24Z"/><path class="cls-3" d="M210.12,116c.11-15.63,1.94-30.39,7.3-44.55,1.91-5.05,3.68-5.61,8-2.23a53.89,53.89,0,0,1,6.13,5.83c7.17,7.77,7.1,8.58,2,17.61-8.25,14.64-10.76,30.53-9.82,47.12,0,.5.17,1,.21,1.48.76,8.27.75,8.18-7.36,8.08-2.4,0-3.29-.56-3.74-3.18A202,202,0,0,1,210.12,116Z"/><path class="cls-4" d="M247.56,231.32c1,0,2,.31,2.1.72a21.2,21.2,0,0,1,.72,3.5s.19,2.35.3,4.64c.19,4.23.08,10,.08,10,0,1.1-.22,1.12-.43,0,0,0-.57-2.84-1-5.33q-.59-3.28-1.09-6.46l-1.57-7.05Z"/><path class="cls-5" d="M114.25,159.24c-2.64,1.76-5.57,2.51-9.74,2.89,3.24-1.71,5.43-3.06,8.14-3.1Z"/><path class="cls-1" d="M113.13,269.13v2h0a3.25,3.25,0,0,1-2-3.17,132.29,132.29,0,0,1,1-19.82c0,5.28-.06,10.55,0,15.83,0,1.75-.68,3.7,1,5.17Z"/></svg>